<?xml version="1.0" encoding="UTF-8" standalone="no"?>
<!DOCTYPE svg PUBLIC "-//W3C//DTD SVG 1.1//EN"
 "http://www.w3.org/Graphics/SVG/1.1/DTD/svg11.dtd">
<!-- Generated by graphviz version 10.0.1 (20240210.2158)
 -->
<!-- Title: ArvoreBinaria Pages: 1 -->
<svg width="432pt" height="270pt"
 viewBox="0.00 0.00 431.63 269.76" xmlns="http://www.w3.org/2000/svg" xmlns:xlink="http://www.w3.org/1999/xlink">
<g id="graph0" class="graph" transform="scale(1 1) rotate(0) translate(4 265.76)">
<title>ArvoreBinaria</title>
<polygon fill="white" stroke="none" points="-4,4 -4,-265.76 427.63,-265.76 427.63,4 -4,4"/>
<!-- 8 -->
<g id="node1" class="node">
<title>8</title>
<ellipse fill="#9370db" stroke="black" cx="206" cy="-243.76" rx="18" ry="18"/>
<text text-anchor="middle" x="206" y="-238.34" font-family="Times New Roman,serif" font-size="14.00">8</text>
</g>
<!-- 4 -->
<g id="node2" class="node">
<title>4</title>
<ellipse fill="#9370db" stroke="black" cx="152" cy="-170.14" rx="18" ry="18"/>
<text text-anchor="middle" x="152" y="-164.71" font-family="Times New Roman,serif" font-size="14.00">4</text>
</g>
<!-- 8&#45;&gt;4 -->
<g id="edge1" class="edge">
<title>8&#45;&gt;4</title>
<path fill="none" stroke="black" d="M195.59,-228.95C188.12,-219.04 177.88,-205.47 169.21,-193.96"/>
<polygon fill="black" stroke="black" points="172.11,-191.99 163.29,-186.11 166.52,-196.2 172.11,-191.99"/>
</g>
<!-- 12 -->
<g id="node3" class="node">
<title>12</title>
<ellipse fill="#9370db" stroke="black" cx="262" cy="-170.14" rx="19.63" ry="19.63"/>
<text text-anchor="middle" x="262" y="-164.71" font-family="Times New Roman,serif" font-size="14.00">12</text>
</g>
<!-- 8&#45;&gt;12 -->
<g id="edge2" class="edge">
<title>8&#45;&gt;12</title>
<path fill="none" stroke="black" d="M216.8,-228.95C224.3,-219.36 234.48,-206.33 243.29,-195.07"/>
<polygon fill="black" stroke="black" points="245.93,-197.37 249.34,-187.33 240.42,-193.05 245.93,-197.37"/>
</g>
<!-- 2 -->
<g id="node4" class="node">
<title>2</title>
<ellipse fill="#9370db" stroke="black" cx="72" cy="-94.88" rx="18" ry="18"/>
<text text-anchor="middle" x="72" y="-89.46" font-family="Times New Roman,serif" font-size="14.00">2</text>
</g>
<!-- 4&#45;&gt;2 -->
<g id="edge3" class="edge">
<title>4&#45;&gt;2</title>
<path fill="none" stroke="black" d="M139.15,-157.37C126.86,-146.11 108.09,-128.93 93.52,-115.59"/>
<polygon fill="black" stroke="black" points="95.94,-113.06 86.2,-108.89 91.22,-118.22 95.94,-113.06"/>
</g>
<!-- 6 -->
<g id="node5" class="node">
<title>6</title>
<ellipse fill="#9370db" stroke="black" cx="152" cy="-94.88" rx="18" ry="18"/>
<text text-anchor="middle" x="152" y="-89.46" font-family="Times New Roman,serif" font-size="14.00">6</text>
</g>
<!-- 4&#45;&gt;6 -->
<g id="edge4" class="edge">
<title>4&#45;&gt;6</title>
<path fill="none" stroke="black" d="M152,-151.78C152,-143.72 152,-133.91 152,-124.78"/>
<polygon fill="black" stroke="black" points="155.5,-124.88 152,-114.88 148.5,-124.88 155.5,-124.88"/>
</g>
<!-- 10 -->
<g id="node10" class="node">
<title>10</title>
<ellipse fill="#9370db" stroke="black" cx="262" cy="-94.88" rx="19.63" ry="19.63"/>
<text text-anchor="middle" x="262" y="-89.46" font-family="Times New Roman,serif" font-size="14.00">10</text>
</g>
<!-- 12&#45;&gt;10 -->
<g id="edge9" class="edge">
<title>12&#45;&gt;10</title>
<path fill="none" stroke="black" d="M262,-150.27C262,-142.98 262,-134.45 262,-126.33"/>
<polygon fill="black" stroke="black" points="265.5,-126.45 262,-116.45 258.5,-126.45 265.5,-126.45"/>
</g>
<!-- 14 -->
<g id="node11" class="node">
<title>14</title>
<ellipse fill="#9370db" stroke="black" cx="347" cy="-94.88" rx="19.63" ry="19.63"/>
<text text-anchor="middle" x="347" y="-89.46" font-family="Times New Roman,serif" font-size="14.00">14</text>
</g>
<!-- 12&#45;&gt;14 -->
<g id="edge10" class="edge">
<title>12&#45;&gt;14</title>
<path fill="none" stroke="black" d="M276.42,-156.71C289.49,-145.45 308.96,-128.66 324.15,-115.58"/>
<polygon fill="black" stroke="black" points="326.07,-118.54 331.36,-109.36 321.5,-113.23 326.07,-118.54"/>
</g>
<!-- 1 -->
<g id="node6" class="node">
<title>1</title>
<ellipse fill="#9370db" stroke="black" cx="18" cy="-19.63" rx="18" ry="18"/>
<text text-anchor="middle" x="18" y="-14.2" font-family="Times New Roman,serif" font-size="14.00">1</text>
</g>
<!-- 2&#45;&gt;1 -->
<g id="edge5" class="edge">
<title>2&#45;&gt;1</title>
<path fill="none" stroke="black" d="M61.59,-79.76C54.12,-69.62 43.88,-55.74 35.21,-43.97"/>
<polygon fill="black" stroke="black" points="38.03,-41.9 29.28,-35.93 32.39,-46.05 38.03,-41.9"/>
</g>
<!-- 3 -->
<g id="node7" class="node">
<title>3</title>
<ellipse fill="#9370db" stroke="black" cx="72" cy="-19.63" rx="18" ry="18"/>
<text text-anchor="middle" x="72" y="-14.2" font-family="Times New Roman,serif" font-size="14.00">3</text>
</g>
<!-- 2&#45;&gt;3 -->
<g id="edge6" class="edge">
<title>2&#45;&gt;3</title>
<path fill="none" stroke="black" d="M72,-76.52C72,-68.46 72,-58.66 72,-49.53"/>
<polygon fill="black" stroke="black" points="75.5,-49.63 72,-39.63 68.5,-49.63 75.5,-49.63"/>
</g>
<!-- 5 -->
<g id="node8" class="node">
<title>5</title>
<ellipse fill="#9370db" stroke="black" cx="126" cy="-19.63" rx="18" ry="18"/>
<text text-anchor="middle" x="126" y="-14.2" font-family="Times New Roman,serif" font-size="14.00">5</text>
</g>
<!-- 6&#45;&gt;5 -->
<g id="edge7" class="edge">
<title>6&#45;&gt;5</title>
<path fill="none" stroke="black" d="M146.23,-77.62C143.12,-68.87 139.2,-57.83 135.65,-47.8"/>
<polygon fill="black" stroke="black" points="138.99,-46.77 132.35,-38.52 132.4,-49.11 138.99,-46.77"/>
</g>
<!-- 7 -->
<g id="node9" class="node">
<title>7</title>
<ellipse fill="#9370db" stroke="black" cx="180" cy="-19.63" rx="18" ry="18"/>
<text text-anchor="middle" x="180" y="-14.2" font-family="Times New Roman,serif" font-size="14.00">7</text>
</g>
<!-- 6&#45;&gt;7 -->
<g id="edge8" class="edge">
<title>6&#45;&gt;7</title>
<path fill="none" stroke="black" d="M158.21,-77.62C161.59,-68.8 165.84,-57.67 169.69,-47.59"/>
<polygon fill="black" stroke="black" points="172.96,-48.84 173.26,-38.25 166.42,-46.34 172.96,-48.84"/>
</g>
<!-- 9 -->
<g id="node12" class="node">
<title>9</title>
<ellipse fill="#9370db" stroke="black" cx="234" cy="-19.63" rx="18" ry="18"/>
<text text-anchor="middle" x="234" y="-14.2" font-family="Times New Roman,serif" font-size="14.00">9</text>
</g>
<!-- 10&#45;&gt;9 -->
<g id="edge11" class="edge">
<title>10&#45;&gt;9</title>
<path fill="none" stroke="black" d="M255.22,-76.15C251.92,-67.51 247.88,-56.93 244.21,-47.33"/>
<polygon fill="black" stroke="black" points="247.52,-46.2 240.68,-38.11 240.98,-48.7 247.52,-46.2"/>
</g>
<!-- 11 -->
<g id="node13" class="node">
<title>11</title>
<ellipse fill="#9370db" stroke="black" cx="290" cy="-19.63" rx="19.63" ry="19.63"/>
<text text-anchor="middle" x="290" y="-14.2" font-family="Times New Roman,serif" font-size="14.00">11</text>
</g>
<!-- 10&#45;&gt;11 -->
<g id="edge12" class="edge">
<title>10&#45;&gt;11</title>
<path fill="none" stroke="black" d="M268.78,-76.15C271.88,-68.02 275.64,-58.18 279.13,-49.06"/>
<polygon fill="black" stroke="black" points="282.35,-50.45 282.65,-39.86 275.81,-47.96 282.35,-50.45"/>
</g>
<!-- 13 -->
<g id="node14" class="node">
<title>13</title>
<ellipse fill="#9370db" stroke="black" cx="347" cy="-19.63" rx="19.63" ry="19.63"/>
<text text-anchor="middle" x="347" y="-14.2" font-family="Times New Roman,serif" font-size="14.00">13</text>
</g>
<!-- 14&#45;&gt;13 -->
<g id="edge13" class="edge">
<title>14&#45;&gt;13</title>
<path fill="none" stroke="black" d="M347,-75.02C347,-67.73 347,-59.19 347,-51.08"/>
<polygon fill="black" stroke="black" points="350.5,-51.2 347,-41.2 343.5,-51.2 350.5,-51.2"/>
</g>
<!-- 15 -->
<g id="node15" class="node">
<title>15</title>
<ellipse fill="#9370db" stroke="black" cx="404" cy="-19.63" rx="19.63" ry="19.63"/>
<text text-anchor="middle" x="404" y="-14.2" font-family="Times New Roman,serif" font-size="14.00">15</text>
</g>
<!-- 14&#45;&gt;15 -->
<g id="edge14" class="edge">
<title>14&#45;&gt;15</title>
<path fill="none" stroke="black" d="M358.81,-78.7C366.45,-68.88 376.57,-55.88 385.29,-44.67"/>
<polygon fill="black" stroke="black" points="387.9,-47.02 391.28,-36.98 382.37,-42.72 387.9,-47.02"/>
</g>
</g>
</svg>
