<?xml version="1.0" encoding="UTF-8" standalone="no"?>
<!DOCTYPE svg PUBLIC "-//W3C//DTD SVG 1.1//EN"
 "http://www.w3.org/Graphics/SVG/1.1/DTD/svg11.dtd">
<!-- Generated by graphviz version 10.0.1 (20240210.2158)
 -->
<!-- Title: ArvoreBinaria Pages: 1 -->
<svg width="320pt" height="309pt"
 viewBox="0.00 0.00 320.24 308.94" xmlns="http://www.w3.org/2000/svg" xmlns:xlink="http://www.w3.org/1999/xlink">
<g id="graph0" class="graph" transform="scale(1 1) rotate(0) translate(4 304.94)">
<title>ArvoreBinaria</title>
<polygon fill="white" stroke="none" points="-4,4 -4,-304.94 316.24,-304.94 316.24,4 -4,4"/>
<!-- 165 -->
<g id="node1" class="node">
<title>165</title>
<ellipse fill="#9370db" stroke="black" cx="172.12" cy="-276.83" rx="24.12" ry="24.12"/>
<text text-anchor="middle" x="172.12" y="-271.4" font-family="Times New Roman,serif" font-size="14.00">165</text>
</g>
<!-- 150 -->
<g id="node2" class="node">
<title>150</title>
<ellipse fill="#9370db" stroke="black" cx="123.12" cy="-192.59" rx="24.12" ry="24.12"/>
<text text-anchor="middle" x="123.12" y="-187.17" font-family="Times New Roman,serif" font-size="14.00">150</text>
</g>
<!-- 165&#45;&gt;150 -->
<g id="edge1" class="edge">
<title>165&#45;&gt;150</title>
<path fill="none" stroke="black" d="M160.01,-255.5C154.29,-245.91 147.36,-234.28 141.05,-223.69"/>
<polygon fill="black" stroke="black" points="144.16,-222.07 136.04,-215.27 138.15,-225.65 144.16,-222.07"/>
</g>
<!-- 177 -->
<g id="node3" class="node">
<title>177</title>
<ellipse fill="#9370db" stroke="black" cx="222.12" cy="-192.59" rx="24.12" ry="24.12"/>
<text text-anchor="middle" x="222.12" y="-187.17" font-family="Times New Roman,serif" font-size="14.00">177</text>
</g>
<!-- 165&#45;&gt;177 -->
<g id="edge2" class="edge">
<title>165&#45;&gt;177</title>
<path fill="none" stroke="black" d="M184.22,-255.92C190.15,-246.17 197.42,-234.22 203.99,-223.4"/>
<polygon fill="black" stroke="black" points="206.79,-225.54 208.99,-215.18 200.81,-221.91 206.79,-225.54"/>
</g>
<!-- 148 -->
<g id="node4" class="node">
<title>148</title>
<ellipse fill="#9370db" stroke="black" cx="40.12" cy="-108.35" rx="24.12" ry="24.12"/>
<text text-anchor="middle" x="40.12" y="-102.93" font-family="Times New Roman,serif" font-size="14.00">148</text>
</g>
<!-- 150&#45;&gt;148 -->
<g id="edge3" class="edge">
<title>150&#45;&gt;148</title>
<path fill="none" stroke="black" d="M106.32,-174.95C94.4,-163.13 78.19,-147.08 64.8,-133.81"/>
<polygon fill="black" stroke="black" points="67.53,-131.59 57.96,-127.04 62.6,-136.56 67.53,-131.59"/>
</g>
<!-- 152 -->
<g id="node5" class="node">
<title>152</title>
<ellipse fill="#9370db" stroke="black" cx="123.12" cy="-108.35" rx="24.12" ry="24.12"/>
<text text-anchor="middle" x="123.12" y="-102.93" font-family="Times New Roman,serif" font-size="14.00">152</text>
</g>
<!-- 150&#45;&gt;152 -->
<g id="edge4" class="edge">
<title>150&#45;&gt;152</title>
<path fill="none" stroke="black" d="M123.12,-168.24C123.12,-160.78 123.12,-152.35 123.12,-144.24"/>
<polygon fill="black" stroke="black" points="126.62,-144.27 123.12,-134.27 119.62,-144.27 126.62,-144.27"/>
</g>
<!-- 167 -->
<g id="node9" class="node">
<title>167</title>
<ellipse fill="#9370db" stroke="black" cx="222.12" cy="-108.35" rx="24.12" ry="24.12"/>
<text text-anchor="middle" x="222.12" y="-102.93" font-family="Times New Roman,serif" font-size="14.00">167</text>
</g>
<!-- 177&#45;&gt;167 -->
<g id="edge8" class="edge">
<title>177&#45;&gt;167</title>
<path fill="none" stroke="black" d="M222.12,-168.24C222.12,-160.78 222.12,-152.35 222.12,-144.24"/>
<polygon fill="black" stroke="black" points="225.62,-144.27 222.12,-134.27 218.62,-144.27 225.62,-144.27"/>
</g>
<!-- 186 -->
<g id="node10" class="node">
<title>186</title>
<ellipse fill="#9370db" stroke="black" cx="288.12" cy="-108.35" rx="24.12" ry="24.12"/>
<text text-anchor="middle" x="288.12" y="-102.93" font-family="Times New Roman,serif" font-size="14.00">186</text>
</g>
<!-- 177&#45;&gt;186 -->
<g id="edge9" class="edge">
<title>177&#45;&gt;186</title>
<path fill="none" stroke="black" d="M236.77,-173.34C245.42,-162.56 256.55,-148.69 266.23,-136.63"/>
<polygon fill="black" stroke="black" points="268.81,-139.01 272.34,-129.02 263.35,-134.63 268.81,-139.01"/>
</g>
<!-- 142 -->
<g id="node6" class="node">
<title>142</title>
<ellipse fill="#9370db" stroke="black" cx="24.12" cy="-24.12" rx="24.12" ry="24.12"/>
<text text-anchor="middle" x="24.12" y="-18.69" font-family="Times New Roman,serif" font-size="14.00">142</text>
</g>
<!-- 148&#45;&gt;142 -->
<g id="edge5" class="edge">
<title>148&#45;&gt;142</title>
<path fill="none" stroke="black" d="M35.66,-84.45C34.15,-76.67 32.42,-67.81 30.78,-59.34"/>
<polygon fill="black" stroke="black" points="34.24,-58.82 28.9,-49.67 27.37,-60.16 34.24,-58.82"/>
</g>
<!-- 151 -->
<g id="node7" class="node">
<title>151</title>
<ellipse fill="#9370db" stroke="black" cx="90.12" cy="-24.12" rx="24.12" ry="24.12"/>
<text text-anchor="middle" x="90.12" y="-18.69" font-family="Times New Roman,serif" font-size="14.00">151</text>
</g>
<!-- 152&#45;&gt;151 -->
<g id="edge6" class="edge">
<title>152&#45;&gt;151</title>
<path fill="none" stroke="black" d="M114.45,-85.75C110.95,-77.03 106.84,-66.8 103.01,-57.25"/>
<polygon fill="black" stroke="black" points="106.38,-56.25 99.41,-48.27 99.88,-58.85 106.38,-56.25"/>
</g>
<!-- 155 -->
<g id="node8" class="node">
<title>155</title>
<ellipse fill="#9370db" stroke="black" cx="156.12" cy="-24.12" rx="24.12" ry="24.12"/>
<text text-anchor="middle" x="156.12" y="-18.69" font-family="Times New Roman,serif" font-size="14.00">155</text>
</g>
<!-- 152&#45;&gt;155 -->
<g id="edge7" class="edge">
<title>152&#45;&gt;155</title>
<path fill="none" stroke="black" d="M131.79,-85.75C135.28,-77.03 139.39,-66.8 143.23,-57.25"/>
<polygon fill="black" stroke="black" points="146.35,-58.85 146.83,-48.27 139.85,-56.25 146.35,-58.85"/>
</g>
<!-- 166 -->
<g id="node11" class="node">
<title>166</title>
<ellipse fill="#9370db" stroke="black" cx="222.12" cy="-24.12" rx="24.12" ry="24.12"/>
<text text-anchor="middle" x="222.12" y="-18.69" font-family="Times New Roman,serif" font-size="14.00">166</text>
</g>
<!-- 167&#45;&gt;166 -->
<g id="edge10" class="edge">
<title>167&#45;&gt;166</title>
<path fill="none" stroke="black" d="M222.12,-84.01C222.12,-76.54 222.12,-68.11 222.12,-60.01"/>
<polygon fill="black" stroke="black" points="225.62,-60.04 222.12,-50.04 218.62,-60.04 225.62,-60.04"/>
</g>
<!-- 171 -->
<g id="node12" class="node">
<title>171</title>
<ellipse fill="#9370db" stroke="black" cx="288.12" cy="-24.12" rx="24.12" ry="24.12"/>
<text text-anchor="middle" x="288.12" y="-18.69" font-family="Times New Roman,serif" font-size="14.00">171</text>
</g>
<!-- 167&#45;&gt;171 -->
<g id="edge11" class="edge">
<title>167&#45;&gt;171</title>
<path fill="none" stroke="black" d="M236.77,-89.1C245.42,-78.32 256.55,-64.46 266.23,-52.4"/>
<polygon fill="black" stroke="black" points="268.81,-54.77 272.34,-44.78 263.35,-50.39 268.81,-54.77"/>
</g>
</g>
</svg>
