<?xml version="1.0" encoding="UTF-8" standalone="no"?>
<!DOCTYPE svg PUBLIC "-//W3C//DTD SVG 1.1//EN"
 "http://www.w3.org/Graphics/SVG/1.1/DTD/svg11.dtd">
<!-- Generated by graphviz version 10.0.1 (20240210.2158)
 -->
<!-- Title: ArvoreBinaria Pages: 1 -->
<svg width="104pt" height="198pt"
 viewBox="0.00 0.00 104.25 197.76" xmlns="http://www.w3.org/2000/svg" xmlns:xlink="http://www.w3.org/1999/xlink">
<g id="graph0" class="graph" transform="scale(1 1) rotate(0) translate(4 193.76)">
<title>ArvoreBinaria</title>
<polygon fill="white" stroke="none" points="-4,4 -4,-193.76 100.25,-193.76 100.25,4 -4,4"/>
<!-- 17 -->
<g id="node1" class="node">
<title>17</title>
<ellipse fill="#9370db" stroke="black" cx="47.63" cy="-170.14" rx="19.63" ry="19.63"/>
<text text-anchor="middle" x="47.63" y="-164.71" font-family="Times New Roman,serif" font-size="14.00">17</text>
</g>
<!-- 12 -->
<g id="node2" class="node">
<title>12</title>
<ellipse fill="#9370db" stroke="black" cx="19.63" cy="-94.88" rx="19.63" ry="19.63"/>
<text text-anchor="middle" x="19.63" y="-89.46" font-family="Times New Roman,serif" font-size="14.00">12</text>
</g>
<!-- 17&#45;&gt;12 -->
<g id="edge1" class="edge">
<title>17&#45;&gt;12</title>
<path fill="none" stroke="black" d="M40.85,-151.4C37.74,-143.28 33.98,-133.44 30.5,-124.32"/>
<polygon fill="black" stroke="black" points="33.82,-123.21 26.98,-115.12 27.28,-125.71 33.82,-123.21"/>
</g>
<!-- 27 -->
<g id="node3" class="node">
<title>27</title>
<ellipse fill="#9370db" stroke="black" cx="76.63" cy="-94.88" rx="19.63" ry="19.63"/>
<text text-anchor="middle" x="76.63" y="-89.46" font-family="Times New Roman,serif" font-size="14.00">27</text>
</g>
<!-- 17&#45;&gt;27 -->
<g id="edge2" class="edge">
<title>17&#45;&gt;27</title>
<path fill="none" stroke="black" d="M54.65,-151.4C57.86,-143.28 61.76,-133.44 65.37,-124.32"/>
<polygon fill="black" stroke="black" points="68.59,-125.7 69.01,-115.11 62.08,-123.12 68.59,-125.7"/>
</g>
<!-- 10 -->
<g id="node4" class="node">
<title>10</title>
<ellipse fill="#9370db" stroke="black" cx="19.63" cy="-19.63" rx="19.63" ry="19.63"/>
<text text-anchor="middle" x="19.63" y="-14.2" font-family="Times New Roman,serif" font-size="14.00">10</text>
</g>
<!-- 12&#45;&gt;10 -->
<g id="edge3" class="edge">
<title>12&#45;&gt;10</title>
<path fill="none" stroke="black" d="M19.63,-75.02C19.63,-67.73 19.63,-59.19 19.63,-51.08"/>
<polygon fill="black" stroke="black" points="23.13,-51.2 19.63,-41.2 16.13,-51.2 23.13,-51.2"/>
</g>
<!-- 29 -->
<g id="node5" class="node">
<title>29</title>
<ellipse fill="#9370db" stroke="black" cx="76.63" cy="-19.63" rx="19.63" ry="19.63"/>
<text text-anchor="middle" x="76.63" y="-14.2" font-family="Times New Roman,serif" font-size="14.00">29</text>
</g>
<!-- 27&#45;&gt;29 -->
<g id="edge4" class="edge">
<title>27&#45;&gt;29</title>
<path fill="none" stroke="black" d="M76.63,-75.02C76.63,-67.73 76.63,-59.19 76.63,-51.08"/>
<polygon fill="black" stroke="black" points="80.13,-51.2 76.63,-41.2 73.13,-51.2 80.13,-51.2"/>
</g>
</g>
</svg>
