<?xml version="1.0" encoding="UTF-8" standalone="no"?>
<!DOCTYPE svg PUBLIC "-//W3C//DTD SVG 1.1//EN"
 "http://www.w3.org/Graphics/SVG/1.1/DTD/svg11.dtd">
<!-- Generated by graphviz version 10.0.1 (20240210.2158)
 -->
<!-- Title: ArvoreBinaria Pages: 1 -->
<svg width="518pt" height="309pt"
 viewBox="0.00 0.00 518.24 308.94" xmlns="http://www.w3.org/2000/svg" xmlns:xlink="http://www.w3.org/1999/xlink">
<g id="graph0" class="graph" transform="scale(1 1) rotate(0) translate(4 304.94)">
<title>ArvoreBinaria</title>
<polygon fill="white" stroke="none" points="-4,4 -4,-304.94 514.24,-304.94 514.24,4 -4,4"/>
<!-- 165 -->
<g id="node1" class="node">
<title>165</title>
<ellipse fill="#9370db" stroke="black" cx="255.12" cy="-276.83" rx="24.12" ry="24.12"/>
<text text-anchor="middle" x="255.12" y="-271.4" font-family="Times New Roman,serif" font-size="14.00">165</text>
</g>
<!-- 150 -->
<g id="node2" class="node">
<title>150</title>
<ellipse fill="#9370db" stroke="black" cx="189.12" cy="-192.59" rx="24.12" ry="24.12"/>
<text text-anchor="middle" x="189.12" y="-187.17" font-family="Times New Roman,serif" font-size="14.00">150</text>
</g>
<!-- 165&#45;&gt;150 -->
<g id="edge1" class="edge">
<title>165&#45;&gt;150</title>
<path fill="none" stroke="black" d="M240.47,-257.58C231.82,-246.79 220.69,-232.93 211.01,-220.87"/>
<polygon fill="black" stroke="black" points="213.89,-218.86 204.9,-213.26 208.43,-223.24 213.89,-218.86"/>
</g>
<!-- 176 -->
<g id="node3" class="node">
<title>176</title>
<ellipse fill="#9370db" stroke="black" cx="321.12" cy="-192.59" rx="24.12" ry="24.12"/>
<text text-anchor="middle" x="321.12" y="-187.17" font-family="Times New Roman,serif" font-size="14.00">176</text>
</g>
<!-- 165&#45;&gt;176 -->
<g id="edge2" class="edge">
<title>165&#45;&gt;176</title>
<path fill="none" stroke="black" d="M269.77,-257.58C278.42,-246.79 289.55,-232.93 299.23,-220.87"/>
<polygon fill="black" stroke="black" points="301.81,-223.24 305.34,-213.26 296.35,-218.86 301.81,-223.24"/>
</g>
<!-- 146 -->
<g id="node4" class="node">
<title>146</title>
<ellipse fill="#9370db" stroke="black" cx="90.12" cy="-108.35" rx="24.12" ry="24.12"/>
<text text-anchor="middle" x="90.12" y="-102.93" font-family="Times New Roman,serif" font-size="14.00">146</text>
</g>
<!-- 150&#45;&gt;146 -->
<g id="edge3" class="edge">
<title>150&#45;&gt;146</title>
<path fill="none" stroke="black" d="M170.96,-176.51C155.84,-163.95 134.1,-145.89 116.97,-131.66"/>
<polygon fill="black" stroke="black" points="119.59,-129.29 109.66,-125.59 115.12,-134.67 119.59,-129.29"/>
</g>
<!-- 152 -->
<g id="node5" class="node">
<title>152</title>
<ellipse fill="#9370db" stroke="black" cx="189.12" cy="-108.35" rx="24.12" ry="24.12"/>
<text text-anchor="middle" x="189.12" y="-102.93" font-family="Times New Roman,serif" font-size="14.00">152</text>
</g>
<!-- 150&#45;&gt;152 -->
<g id="edge4" class="edge">
<title>150&#45;&gt;152</title>
<path fill="none" stroke="black" d="M189.12,-168.24C189.12,-160.78 189.12,-152.35 189.12,-144.24"/>
<polygon fill="black" stroke="black" points="192.62,-144.27 189.12,-134.27 185.62,-144.27 192.62,-144.27"/>
</g>
<!-- 167 -->
<g id="node10" class="node">
<title>167</title>
<ellipse fill="#9370db" stroke="black" cx="321.12" cy="-108.35" rx="24.12" ry="24.12"/>
<text text-anchor="middle" x="321.12" y="-102.93" font-family="Times New Roman,serif" font-size="14.00">167</text>
</g>
<!-- 176&#45;&gt;167 -->
<g id="edge9" class="edge">
<title>176&#45;&gt;167</title>
<path fill="none" stroke="black" d="M321.12,-168.24C321.12,-160.78 321.12,-152.35 321.12,-144.24"/>
<polygon fill="black" stroke="black" points="324.62,-144.27 321.12,-134.27 317.62,-144.27 324.62,-144.27"/>
</g>
<!-- 180 -->
<g id="node11" class="node">
<title>180</title>
<ellipse fill="#9370db" stroke="black" cx="420.12" cy="-108.35" rx="24.12" ry="24.12"/>
<text text-anchor="middle" x="420.12" y="-102.93" font-family="Times New Roman,serif" font-size="14.00">180</text>
</g>
<!-- 176&#45;&gt;180 -->
<g id="edge10" class="edge">
<title>176&#45;&gt;180</title>
<path fill="none" stroke="black" d="M339.28,-176.51C354.39,-163.95 376.13,-145.89 393.26,-131.66"/>
<polygon fill="black" stroke="black" points="395.12,-134.67 400.58,-125.59 390.65,-129.29 395.12,-134.67"/>
</g>
<!-- 142 -->
<g id="node6" class="node">
<title>142</title>
<ellipse fill="#9370db" stroke="black" cx="24.12" cy="-24.12" rx="24.12" ry="24.12"/>
<text text-anchor="middle" x="24.12" y="-18.69" font-family="Times New Roman,serif" font-size="14.00">142</text>
</g>
<!-- 146&#45;&gt;142 -->
<g id="edge5" class="edge">
<title>146&#45;&gt;142</title>
<path fill="none" stroke="black" d="M75.47,-89.1C66.82,-78.32 55.69,-64.46 46.01,-52.4"/>
<polygon fill="black" stroke="black" points="48.89,-50.39 39.9,-44.78 43.43,-54.77 48.89,-50.39"/>
</g>
<!-- 148 -->
<g id="node7" class="node">
<title>148</title>
<ellipse fill="#9370db" stroke="black" cx="90.12" cy="-24.12" rx="24.12" ry="24.12"/>
<text text-anchor="middle" x="90.12" y="-18.69" font-family="Times New Roman,serif" font-size="14.00">148</text>
</g>
<!-- 146&#45;&gt;148 -->
<g id="edge6" class="edge">
<title>146&#45;&gt;148</title>
<path fill="none" stroke="black" d="M90.12,-84.01C90.12,-76.54 90.12,-68.11 90.12,-60.01"/>
<polygon fill="black" stroke="black" points="93.62,-60.04 90.12,-50.04 86.62,-60.04 93.62,-60.04"/>
</g>
<!-- 151 -->
<g id="node8" class="node">
<title>151</title>
<ellipse fill="#9370db" stroke="black" cx="156.12" cy="-24.12" rx="24.12" ry="24.12"/>
<text text-anchor="middle" x="156.12" y="-18.69" font-family="Times New Roman,serif" font-size="14.00">151</text>
</g>
<!-- 152&#45;&gt;151 -->
<g id="edge7" class="edge">
<title>152&#45;&gt;151</title>
<path fill="none" stroke="black" d="M180.45,-85.75C176.95,-77.03 172.84,-66.8 169.01,-57.25"/>
<polygon fill="black" stroke="black" points="172.38,-56.25 165.41,-48.27 165.88,-58.85 172.38,-56.25"/>
</g>
<!-- 155 -->
<g id="node9" class="node">
<title>155</title>
<ellipse fill="#9370db" stroke="black" cx="222.12" cy="-24.12" rx="24.12" ry="24.12"/>
<text text-anchor="middle" x="222.12" y="-18.69" font-family="Times New Roman,serif" font-size="14.00">155</text>
</g>
<!-- 152&#45;&gt;155 -->
<g id="edge8" class="edge">
<title>152&#45;&gt;155</title>
<path fill="none" stroke="black" d="M197.79,-85.75C201.28,-77.03 205.39,-66.8 209.23,-57.25"/>
<polygon fill="black" stroke="black" points="212.35,-58.85 212.83,-48.27 205.85,-56.25 212.35,-58.85"/>
</g>
<!-- 166 -->
<g id="node12" class="node">
<title>166</title>
<ellipse fill="#9370db" stroke="black" cx="288.12" cy="-24.12" rx="24.12" ry="24.12"/>
<text text-anchor="middle" x="288.12" y="-18.69" font-family="Times New Roman,serif" font-size="14.00">166</text>
</g>
<!-- 167&#45;&gt;166 -->
<g id="edge11" class="edge">
<title>167&#45;&gt;166</title>
<path fill="none" stroke="black" d="M312.45,-85.75C308.95,-77.03 304.84,-66.8 301.01,-57.25"/>
<polygon fill="black" stroke="black" points="304.38,-56.25 297.41,-48.27 297.88,-58.85 304.38,-56.25"/>
</g>
<!-- 171 -->
<g id="node13" class="node">
<title>171</title>
<ellipse fill="#9370db" stroke="black" cx="354.12" cy="-24.12" rx="24.12" ry="24.12"/>
<text text-anchor="middle" x="354.12" y="-18.69" font-family="Times New Roman,serif" font-size="14.00">171</text>
</g>
<!-- 167&#45;&gt;171 -->
<g id="edge12" class="edge">
<title>167&#45;&gt;171</title>
<path fill="none" stroke="black" d="M329.79,-85.75C333.28,-77.03 337.39,-66.8 341.23,-57.25"/>
<polygon fill="black" stroke="black" points="344.35,-58.85 344.83,-48.27 337.85,-56.25 344.35,-58.85"/>
</g>
<!-- 177 -->
<g id="node14" class="node">
<title>177</title>
<ellipse fill="#9370db" stroke="black" cx="420.12" cy="-24.12" rx="24.12" ry="24.12"/>
<text text-anchor="middle" x="420.12" y="-18.69" font-family="Times New Roman,serif" font-size="14.00">177</text>
</g>
<!-- 180&#45;&gt;177 -->
<g id="edge13" class="edge">
<title>180&#45;&gt;177</title>
<path fill="none" stroke="black" d="M420.12,-84.01C420.12,-76.54 420.12,-68.11 420.12,-60.01"/>
<polygon fill="black" stroke="black" points="423.62,-60.04 420.12,-50.04 416.62,-60.04 423.62,-60.04"/>
</g>
<!-- 186 -->
<g id="node15" class="node">
<title>186</title>
<ellipse fill="#9370db" stroke="black" cx="486.12" cy="-24.12" rx="24.12" ry="24.12"/>
<text text-anchor="middle" x="486.12" y="-18.69" font-family="Times New Roman,serif" font-size="14.00">186</text>
</g>
<!-- 180&#45;&gt;186 -->
<g id="edge14" class="edge">
<title>180&#45;&gt;186</title>
<path fill="none" stroke="black" d="M434.77,-89.1C443.42,-78.32 454.55,-64.46 464.23,-52.4"/>
<polygon fill="black" stroke="black" points="466.81,-54.77 470.34,-44.78 461.35,-50.39 466.81,-54.77"/>
</g>
</g>
</svg>
