<?xml version="1.0" encoding="UTF-8" standalone="no"?>
<!DOCTYPE svg PUBLIC "-//W3C//DTD SVG 1.1//EN"
 "http://www.w3.org/Graphics/SVG/1.1/DTD/svg11.dtd">
<!-- Generated by graphviz version 10.0.1 (20240210.2158)
 -->
<!-- Title: ArvoreBinaria Pages: 1 -->
<svg width="218pt" height="198pt"
 viewBox="0.00 0.00 218.25 197.76" xmlns="http://www.w3.org/2000/svg" xmlns:xlink="http://www.w3.org/1999/xlink">
<g id="graph0" class="graph" transform="scale(1 1) rotate(0) translate(4 193.76)">
<title>ArvoreBinaria</title>
<polygon fill="white" stroke="none" points="-4,4 -4,-193.76 214.25,-193.76 214.25,4 -4,4"/>
<!-- 17 -->
<g id="node1" class="node">
<title>17</title>
<ellipse fill="#9370db" stroke="black" cx="104.63" cy="-170.14" rx="19.63" ry="19.63"/>
<text text-anchor="middle" x="104.63" y="-164.71" font-family="Times New Roman,serif" font-size="14.00">17</text>
</g>
<!-- 12 -->
<g id="node2" class="node">
<title>12</title>
<ellipse fill="#9370db" stroke="black" cx="76.63" cy="-94.88" rx="19.63" ry="19.63"/>
<text text-anchor="middle" x="76.63" y="-89.46" font-family="Times New Roman,serif" font-size="14.00">12</text>
</g>
<!-- 17&#45;&gt;12 -->
<g id="edge1" class="edge">
<title>17&#45;&gt;12</title>
<path fill="none" stroke="black" d="M97.85,-151.4C94.74,-143.28 90.98,-133.44 87.5,-124.32"/>
<polygon fill="black" stroke="black" points="90.82,-123.21 83.98,-115.12 84.28,-125.71 90.82,-123.21"/>
</g>
<!-- 27 -->
<g id="node3" class="node">
<title>27</title>
<ellipse fill="#9370db" stroke="black" cx="133.63" cy="-94.88" rx="19.63" ry="19.63"/>
<text text-anchor="middle" x="133.63" y="-89.46" font-family="Times New Roman,serif" font-size="14.00">27</text>
</g>
<!-- 17&#45;&gt;27 -->
<g id="edge2" class="edge">
<title>17&#45;&gt;27</title>
<path fill="none" stroke="black" d="M111.65,-151.4C114.86,-143.28 118.76,-133.44 122.37,-124.32"/>
<polygon fill="black" stroke="black" points="125.59,-125.7 126.01,-115.11 119.08,-123.12 125.59,-125.7"/>
</g>
<!-- 10 -->
<g id="node4" class="node">
<title>10</title>
<ellipse fill="#9370db" stroke="black" cx="19.63" cy="-19.63" rx="19.63" ry="19.63"/>
<text text-anchor="middle" x="19.63" y="-14.2" font-family="Times New Roman,serif" font-size="14.00">10</text>
</g>
<!-- 12&#45;&gt;10 -->
<g id="edge3" class="edge">
<title>12&#45;&gt;10</title>
<path fill="none" stroke="black" d="M64.82,-78.7C57.17,-68.88 47.06,-55.88 38.34,-44.67"/>
<polygon fill="black" stroke="black" points="41.26,-42.72 32.35,-36.98 35.73,-47.02 41.26,-42.72"/>
</g>
<!-- 14 -->
<g id="node5" class="node">
<title>14</title>
<ellipse fill="#9370db" stroke="black" cx="76.63" cy="-19.63" rx="19.63" ry="19.63"/>
<text text-anchor="middle" x="76.63" y="-14.2" font-family="Times New Roman,serif" font-size="14.00">14</text>
</g>
<!-- 12&#45;&gt;14 -->
<g id="edge4" class="edge">
<title>12&#45;&gt;14</title>
<path fill="none" stroke="black" d="M76.63,-75.02C76.63,-67.73 76.63,-59.19 76.63,-51.08"/>
<polygon fill="black" stroke="black" points="80.13,-51.2 76.63,-41.2 73.13,-51.2 80.13,-51.2"/>
</g>
<!-- 21 -->
<g id="node6" class="node">
<title>21</title>
<ellipse fill="#9370db" stroke="black" cx="133.63" cy="-19.63" rx="19.63" ry="19.63"/>
<text text-anchor="middle" x="133.63" y="-14.2" font-family="Times New Roman,serif" font-size="14.00">21</text>
</g>
<!-- 27&#45;&gt;21 -->
<g id="edge5" class="edge">
<title>27&#45;&gt;21</title>
<path fill="none" stroke="black" d="M133.63,-75.02C133.63,-67.73 133.63,-59.19 133.63,-51.08"/>
<polygon fill="black" stroke="black" points="137.13,-51.2 133.63,-41.2 130.13,-51.2 137.13,-51.2"/>
</g>
<!-- 29 -->
<g id="node7" class="node">
<title>29</title>
<ellipse fill="#9370db" stroke="black" cx="190.63" cy="-19.63" rx="19.63" ry="19.63"/>
<text text-anchor="middle" x="190.63" y="-14.2" font-family="Times New Roman,serif" font-size="14.00">29</text>
</g>
<!-- 27&#45;&gt;29 -->
<g id="edge6" class="edge">
<title>27&#45;&gt;29</title>
<path fill="none" stroke="black" d="M145.44,-78.7C153.08,-68.88 163.2,-55.88 171.92,-44.67"/>
<polygon fill="black" stroke="black" points="174.52,-47.02 177.9,-36.98 169,-42.72 174.52,-47.02"/>
</g>
</g>
</svg>
